<svg width="78" height="70" viewBox="0 0 78 70" fill="none" xmlns="http://www.w3.org/2000/svg">
<path d="M20.2924 0H1.3545C0.465165 0 -0.180393 0.836331 0.0453267 1.69065L8.36083 33.0935C8.51883 33.687 9.05604 34.0962 9.67 34.0962H43.9613C44.6204 34.0962 45.1621 33.6151 45.2705 32.9676C45.582 31.1241 46.3178 29.4289 47.3697 27.9721C47.7534 27.446 47.6766 26.7131 47.2117 26.2545L21.2494 0.395683C20.9966 0.143885 20.649 0 20.2924 0Z" fill="white"/>
<path d="M77.9955 32.7473V18.8804C77.9955 17.6799 76.5373 17.0773 75.6796 17.9272L67.2196 26.3534C66.7592 26.812 66.6824 27.536 67.0571 28.0665C68.0774 29.5054 68.7861 31.1781 69.0931 32.9856C69.2015 33.6331 69.7838 34.0962 70.4429 34.0962H76.6412C77.3906 34.0962 77.9955 33.4937 77.9955 32.7473Z" fill="white"/>
<path d="M9.07433 37.5899L17.4305 69.1232C17.5659 69.7077 18.0083 69.9955 18.5681 69.9955H20.2926C20.6537 69.9955 20.9968 69.8516 21.2496 69.5998L47.2119 43.741C47.6723 43.2823 47.7491 42.5494 47.3699 42.0234C46.318 40.5665 45.5822 38.8669 45.2707 37.0234C45.1623 36.3804 44.6206 35.8993 43.966 35.8993H10.3835C9.49416 35.8993 8.84861 36.7356 9.07433 37.5899Z" fill="white"/>
<path d="M26.6804 0C25.4751 0 24.8702 1.45234 25.7234 2.30665L48.5075 25C48.968 25.4586 49.6948 25.5351 50.223 25.1619C51.6856 24.1322 53.3921 23.4173 55.2385 23.1205C55.8976 23.0126 56.3671 22.4325 56.3671 21.7671V1.34892C56.3671 0.602518 55.7621 0 55.0127 0H26.6804Z" fill="white"/>
<path d="M77.9955 12.5405C77.9955 5.616 72.3615 0 65.4049 0H59.473C58.7507 0 58.1683 0.580036 58.1683 1.29946V21.8615C58.1683 22.5045 58.6423 23.0351 59.2743 23.143C61.1117 23.4622 62.8091 24.1996 64.2582 25.2473C64.7683 25.616 65.4771 25.5396 65.924 25.0989L77.6118 13.4577C77.8555 13.2149 77.9955 12.8822 77.9955 12.5405Z" fill="white"/>
<path d="M77.9955 37.2482C77.9955 36.5018 77.3906 35.8993 76.6412 35.8993H70.4429C69.7838 35.8993 69.2015 36.3624 69.0931 37.0099C68.7906 38.8084 68.0864 40.4766 67.0707 41.9109C66.6869 42.455 66.7682 43.1924 67.2377 43.66L75.6841 52.0728C76.5373 52.9226 77.9955 52.3201 77.9955 51.1196V37.2482Z" fill="white"/>
<path d="M59.4775 69.9955H65.4094C72.3615 69.9955 78 64.3795 78 57.455C78 57.1088 77.8646 56.7806 77.6163 56.5378L65.933 44.8966C65.4861 44.4515 64.7774 44.3795 64.2672 44.7482C62.8136 45.7959 61.1207 46.5288 59.2834 46.8525C58.6468 46.9649 58.1728 47.4955 58.1728 48.1385V68.7005C58.1728 69.42 58.7552 70 59.4775 70V69.9955Z" fill="white"/>
<path d="M26.6759 69.9955H55.0082C55.7576 69.9955 56.3625 69.393 56.3625 68.6466V48.1655C56.3625 47.5135 55.8795 46.9784 55.2339 46.875C53.3876 46.5782 51.6811 45.8633 50.2185 44.8336C49.6903 44.4604 48.9635 44.5414 48.503 44.9955L25.7189 67.6889C24.8657 68.5387 25.4706 69.991 26.6759 69.991V69.9955Z" fill="white"/>
<path d="M67.1519 34.2536C66.9894 32.0818 66.1317 30.1034 64.7954 28.5386C64.4704 28.1609 64.1183 27.8057 63.7436 27.482C62.1816 26.1286 60.1907 25.2473 58.0013 25.0719C57.7304 25.0494 57.4595 25.0359 57.1797 25.0359C56.9539 25.0359 56.7282 25.0449 56.5025 25.0629C54.2904 25.2113 52.2815 26.0701 50.6925 27.419C50.3133 27.7428 49.9566 28.0935 49.6316 28.4667C48.2547 30.0404 47.3699 32.0503 47.2074 34.2581C47.1893 34.5054 47.1758 34.7527 47.1758 35.0045C47.1758 35.2563 47.1893 35.5036 47.2074 35.7509C47.3699 37.9586 48.2592 39.9685 49.6316 41.5422C49.9611 41.9154 50.3133 42.2662 50.6925 42.5899C52.277 43.9343 54.2904 44.7976 56.5025 44.946C56.7237 44.9595 56.9494 44.973 57.1797 44.973C57.455 44.973 57.7304 44.9595 58.0013 44.937C60.1907 44.7617 62.1771 43.8804 63.7436 42.5269C64.1183 42.1987 64.4704 41.848 64.7954 41.4703C66.1317 39.91 66.9939 37.9316 67.1519 35.7554C67.17 35.5081 67.1835 35.2608 67.1835 35.009C67.1835 34.7572 67.17 34.5099 67.1519 34.2626V34.2536Z" fill="white"/>
</svg>
