<svg width="163" height="30" viewBox="0 0 163 30" fill="none" xmlns="http://www.w3.org/2000/svg">
<path fill-rule="evenodd" clip-rule="evenodd" d="M163 2V30H2V29H162V2H163Z" fill="white"/>
<path d="M0 0H160.921V27.8597H0V0Z" fill="white"/>
<path d="M16.5253 14.8529H20.2343C19.54 15.7494 18.3798 15.8548 16.5605 15.8548C14.6708 15.8285 13.0712 15.4945 13.0976 13.5521V13.2621C13.0712 11.3373 14.6708 10.9857 16.5605 10.9593C17.2372 10.9593 17.8525 11.0297 18.3974 11.1703C18.9423 11.3109 19.3642 11.5746 19.6542 11.9701H24.5497C24.0312 8.33141 20.6562 7.2152 16.5605 7.2152C12.1132 7.22399 8.47453 8.50719 8.49211 12.9808V13.8422C8.47453 18.307 12.1132 19.5902 16.5605 19.6078C18.5644 19.6078 20.6474 19.1244 22.0185 17.7709L22.247 19.6078H24.5497V12.8314H16.5253V14.8529Z" fill="#1E293B"/>
<path d="M33.9892 10.9418L35.6064 14.431H32.3632L33.9892 10.9418ZM24.9101 19.3353H30.0956L31.0273 17.3138H36.9423L37.8739 19.3353H43.0595L36.7226 7.52282H31.247L24.9101 19.3353Z" fill="#1E293B"/>
<path d="M43.4198 19.3177H48.0253V13.016L52.6396 19.3177H54.9423L59.5566 13.016V19.3177H64.162V7.50524H58.4052L53.7909 13.4115L49.1855 7.50524H43.4198V19.3177Z" fill="#1E293B"/>
<path d="M66.8515 7.50524V19.3177H71.4569V7.50524H66.8515Z" fill="#1E293B"/>
<path d="M80.5976 19.3177H85.203V13.016L89.8173 19.3177H92.12L96.7343 13.016V19.3177H101.34V7.50524H95.5829L90.9687 13.4115L86.3632 7.50524H80.5976V19.3177Z" fill="#1E293B"/>
<path d="M111.043 7.2152C106.596 7.22399 102.957 8.50719 102.975 12.9808V13.8422C102.957 18.307 106.596 19.599 111.043 19.6078C115.481 19.599 119.12 18.307 119.102 13.8422V12.9808C119.102 8.51598 115.49 7.2152 111.043 7.2152ZM114.497 13.5521C114.523 15.4857 112.924 15.8373 111.043 15.8636C109.153 15.8373 107.554 15.4857 107.58 13.5521V13.2621C107.554 11.3373 109.153 10.9857 111.043 10.9593C112.924 10.9857 114.523 11.3373 114.497 13.2621V13.5521Z" fill="#1E293B"/>
<path d="M123.453 7.52282H118.267L124.314 19.3353H129.79L135.846 7.52282H130.66L127.057 15.723L123.453 7.52282Z" fill="#1E293B"/>
<path d="M136.197 19.3353H150.022V16.3031H140.803V14.7914H150.022V12.058H140.803V10.5463H150.022V7.52282H136.197V19.3353Z" fill="#1E293B"/>
</svg>
