<svg width="25" height="24" viewBox="0 0 25 24" fill="none" xmlns="http://www.w3.org/2000/svg">
<path d="M12.5 0C5.59638 0 0 5.37252 0 12C0 18.6275 5.59638 24 12.5 24C19.4036 24 25 18.6275 25 12C25 5.37252 19.4036 0 12.5 0ZM8.6761 16.783C5.94296 16.783 3.72814 14.6418 3.72814 12C3.72814 9.3582 5.94401 7.21699 8.6761 7.21699C11.4082 7.21699 13.6241 9.3582 13.6241 12C13.6241 14.6418 11.4082 16.783 8.6761 16.783ZM16.5779 16.5032C15.2113 16.5032 14.1039 14.4869 14.1039 12.001C14.1039 9.51507 15.2113 7.49875 16.5779 7.49875C17.9444 7.49875 19.0518 9.51407 19.0518 12.001C19.0518 14.4869 17.9444 16.5032 16.5779 16.5032ZM20.4017 16.0346C19.9209 16.0346 19.5316 14.2281 19.5316 12.001C19.5316 9.77386 19.9209 7.96736 20.4017 7.96736C20.8826 7.96736 21.2719 9.77286 21.2719 12.001C21.2719 14.2291 20.8826 16.0346 20.4017 16.0346Z" fill="#1E293B"/>
</svg>
