<svg width="25" height="24" viewBox="0 0 25 24" fill="none" xmlns="http://www.w3.org/2000/svg">
<path d="M12.5 0C5.59638 0 0 5.37252 0 12C0 18.6275 5.59638 24 12.5 24C19.4036 24 25 18.6275 25 12C25 5.37252 19.4036 0 12.5 0ZM18.2868 8.1532C18.0995 10.0516 17.2877 14.6578 16.8714 16.776C16.6944 17.6753 16.351 17.975 16.0179 18.005C15.2893 18.0649 14.7377 17.5454 14.0404 17.1057C12.9371 16.4163 12.3231 15.9867 11.251 15.3072C10.0125 14.5279 10.8139 14.0983 11.5216 13.3988C11.709 13.219 14.9042 10.4213 14.9667 10.1715C14.9771 10.1415 14.9771 10.0216 14.9042 9.9617C14.8314 9.90175 14.7273 9.92173 14.644 9.94172C14.5296 9.9617 12.781 11.0808 9.3776 13.2889C8.87802 13.6187 8.43047 13.7785 8.02456 13.7685C7.57702 13.7585 6.72356 13.5287 6.07827 13.3289C5.29767 13.0891 4.67319 12.9592 4.72523 12.5395C4.75645 12.3197 5.06869 12.0999 5.65154 11.8701C9.29434 10.3514 11.7194 9.34221 12.9371 8.85262C16.403 7.46378 17.1316 7.22398 17.5999 7.21399C17.704 7.21399 17.933 7.23397 18.0891 7.35387C18.214 7.45379 18.2452 7.58368 18.266 7.6836C18.2868 7.78351 18.3077 7.99334 18.2868 8.1532Z" fill="#1E293B"/>
</svg>
