<svg width="25" height="24" viewBox="0 0 25 24" fill="none" xmlns="http://www.w3.org/2000/svg">
<path d="M12.5 0C5.59638 0 0 5.37252 0 12C0 18.6275 5.59638 24 12.5 24C19.4036 24 25 18.6275 25 12C25 5.37252 19.4036 0 12.5 0ZM17.9704 9.30525C17.9788 9.42215 17.9788 9.53805 17.9788 9.65595C17.9788 13.237 15.1395 17.3655 9.94796 17.3655V17.3635C8.41382 17.3655 6.91195 16.9439 5.62136 16.1485C5.84409 16.1745 6.0689 16.1875 6.29267 16.1875C7.56349 16.1885 8.79788 15.7789 9.79808 15.0255C8.58972 15.0035 7.53122 14.2471 7.1607 13.144C7.5843 13.222 8.01936 13.206 8.43464 13.0971C7.11803 12.8413 6.1709 11.7312 6.1709 10.4413V10.4073C6.56328 10.6172 7.0025 10.7341 7.45212 10.746C6.21149 9.95071 5.82952 8.36603 6.57889 7.12806C8.01207 8.82065 10.1259 9.84979 12.3959 9.9587C12.168 9.01748 12.4792 8.03131 13.2129 7.36986C14.3495 6.34371 16.1376 6.39667 17.2065 7.48776C17.8383 7.36786 18.445 7.14505 18.9988 6.83031C18.7885 7.45779 18.3472 7.99034 17.7581 8.32906C18.3181 8.26611 18.8645 8.12223 19.3786 7.90241C18.9998 8.44796 18.5221 8.92256 17.9704 9.30624V9.30525Z" fill="#1E293B"/>
</svg>
