<svg width="25" height="24" viewBox="0 0 25 24" fill="none" xmlns="http://www.w3.org/2000/svg">
<path d="M12.5 0C5.59638 0 0 5.37252 0 12C0 18.6275 5.59638 24 12.5 24C19.4036 24 25 18.6275 25 12C25 5.37252 19.4036 0 12.5 0ZM20.5735 16.0586C20.3861 16.7311 19.8376 17.2556 19.1372 17.4375C17.1597 17.9071 8.30246 17.8491 6.43943 17.4375C5.73897 17.2576 5.19255 16.7311 5.00312 16.0586C4.5358 14.2301 4.56807 10.3634 4.99271 8.57485C5.18006 7.90241 5.72856 7.37785 6.42902 7.196C9.07265 6.66644 18.1859 6.8373 19.1268 7.18601C19.8272 7.36586 20.3736 7.89242 20.5631 8.56486C21.0585 10.4833 21.0262 14.1102 20.5735 16.0586Z" fill="#1E293B"/>
<path d="M11.2167 14.6498L15.4632 12.3117L11.2167 9.97369V14.6498Z" fill="#1E293B"/>
</svg>
