<svg width="414" height="524" viewBox="0 0 414 524" fill="none" xmlns="http://www.w3.org/2000/svg">
<g filter="url(#filter0_f_1_1372)">
<path d="M267.525 267.583V312.506C267.525 317.102 263.759 320.82 259.102 320.82H148.707C144.051 320.82 140.284 317.102 140.284 312.506V267.583C140.284 262.987 136.517 259.269 131.86 259.269H86.3491C81.6924 259.269 77.9256 255.551 77.9256 250.954V79.8451C77.9256 75.2487 81.6924 71.5307 86.3491 71.5307H131.86C136.517 71.5307 140.284 67.8127 140.284 63.2163V18.3144C140.284 13.718 144.051 10 148.707 10H259.102C263.759 10 267.525 13.718 267.525 18.3144V66.9752C267.525 71.5716 263.759 75.2896 259.102 75.2896H151.853C147.197 75.2896 143.43 79.0076 143.43 83.604V247.236C143.43 251.833 147.197 255.551 151.853 255.551H255.935C260.592 255.551 264.359 251.833 264.359 247.236V206.032C264.359 201.436 260.592 197.718 255.935 197.718H210.424C205.767 197.718 202.001 194 202.001 189.403V141.355C202.001 136.759 205.767 133.041 210.424 133.041H321.44C326.096 133.041 329.863 136.759 329.863 141.355V250.934C329.863 255.53 326.096 259.248 321.44 259.248H275.928C271.271 259.248 267.505 262.966 267.505 267.563L267.525 267.583Z" fill="white"/>
<path d="M29.8892 426.374V478.079H82.2719V464.392H62.2377V444.617H102.43V479.08C102.43 489.478 93.8205 497.833 83.3067 497.833H28.9993C18.4648 497.833 10 489.478 10 479.08V425.353C10 414.955 18.4648 406.599 28.9993 406.599H83.3067C93.8411 406.599 102.43 415.976 102.43 426.374H29.8892Z" fill="white"/>
<path d="M201.669 406.62C212.204 406.62 220.793 414.975 220.793 425.374V497.854H200.635V468.457H148.252V497.854H128.363V425.374C128.363 414.975 136.828 406.62 147.362 406.62H201.669ZM200.635 448.683V426.375H148.252V448.683H200.635Z" fill="white"/>
<path d="M330.049 406.62H350.725V497.854H330.691V436.65C320.301 448.826 309.125 462.247 298.86 474.157L266.884 436.773V497.854H246.995V406.62H267.546L298.88 443.494L330.07 406.62H330.049Z" fill="white"/>
<path d="M377.796 406.62H397.83V497.854H377.796V406.62Z" fill="white"/>
</g>
<g filter="url(#filter1_dd_1_1372)">
<path d="M271.695 271.729V316.652C271.695 321.248 267.929 324.966 263.272 324.966H152.877C148.221 324.966 144.454 321.248 144.454 316.652V271.729C144.454 267.133 140.687 263.415 136.03 263.415H90.519C85.8623 263.415 82.0956 259.697 82.0956 255.101V83.9912C82.0956 79.3948 85.8623 75.6768 90.519 75.6768H136.03C140.687 75.6768 144.454 71.9588 144.454 67.3624V22.4605C144.454 17.8641 148.221 14.1461 152.877 14.1461H263.272C267.929 14.1461 271.695 17.8641 271.695 22.4605V71.1212C271.695 75.7176 267.929 79.4356 263.272 79.4356H156.023C151.366 79.4356 147.6 83.1536 147.6 87.75V251.383C147.6 255.979 151.366 259.697 156.023 259.697H260.105C264.762 259.697 268.529 255.979 268.529 251.383V210.178C268.529 205.582 264.762 201.864 260.105 201.864H214.594C209.937 201.864 206.171 198.146 206.171 193.549V145.501C206.171 140.905 209.937 137.187 214.594 137.187H325.61C330.266 137.187 334.033 140.905 334.033 145.501V255.08C334.033 259.677 330.266 263.395 325.61 263.395H280.098C275.441 263.395 271.675 267.112 271.675 271.709L271.695 271.729Z" fill="#F3F4F6"/>
<path d="M34.0592 430.52V482.225H86.4418V468.538H66.4077V448.763H106.6V483.226C106.6 493.624 97.9904 501.979 87.4767 501.979H33.1693C22.6348 501.979 14.17 493.624 14.17 483.226V429.499C14.17 419.101 22.6348 410.745 33.1693 410.745H87.4767C98.0111 410.745 106.6 420.122 106.6 430.52H34.0592Z" fill="#F3F4F6"/>
<path d="M205.839 410.766C216.374 410.766 224.963 419.121 224.963 429.52V502H204.805V472.603H152.422V502H132.533V429.52C132.533 419.121 140.998 410.766 151.532 410.766H205.839ZM204.805 452.829V430.521H152.422V452.829H204.805Z" fill="#F3F4F6"/>
<path d="M334.219 410.766H354.895V502H334.861V440.796C324.471 452.972 313.295 466.393 303.03 478.303L271.054 440.919V502H251.165V410.766H271.716L303.05 447.64L334.24 410.766H334.219Z" fill="#F3F4F6"/>
<path d="M381.966 410.766H402V502H381.966V410.766Z" fill="#F3F4F6"/>
<path d="M271.175 271.709V271.918L271.195 271.939V316.652C271.195 320.966 267.659 324.466 263.272 324.466H152.877C148.491 324.466 144.954 320.966 144.954 316.652V271.729C144.954 266.851 140.957 262.915 136.03 262.915H90.519C86.1323 262.915 82.5956 259.415 82.5956 255.101V83.9912C82.5956 79.677 86.1323 76.1768 90.519 76.1768H136.03C140.957 76.1768 144.954 72.2411 144.954 67.3624V22.4605C144.954 18.1463 148.491 14.6461 152.877 14.6461H263.272C267.659 14.6461 271.195 18.1463 271.195 22.4605V71.1212C271.195 75.4354 267.659 78.9356 263.272 78.9356H156.023C151.097 78.9356 147.1 82.8714 147.1 87.75V251.383C147.1 256.261 151.097 260.197 156.023 260.197H260.105C265.032 260.197 269.029 256.261 269.029 251.383V210.178C269.029 205.299 265.032 201.364 260.105 201.364H214.594C210.207 201.364 206.671 197.864 206.671 193.549V145.501C206.671 141.187 210.207 137.687 214.594 137.687H325.61C329.996 137.687 333.533 141.187 333.533 145.501V255.08C333.533 259.394 329.996 262.895 325.61 262.895H280.098C275.171 262.895 271.175 266.83 271.175 271.709ZM34.0592 430.02H33.5592V430.52V482.225V482.725H34.0592H86.4418H86.9418V482.225V468.538V468.038H86.4418H66.9077V449.263H106.1V483.226C106.1 493.337 97.7251 501.479 87.4767 501.479H33.1693C22.9048 501.479 14.67 493.342 14.67 483.226V429.499C14.67 419.383 22.9048 411.245 33.1693 411.245H87.4767C97.543 411.245 105.824 420.076 106.093 430.02H34.0592ZM151.922 472.603V501.5H133.033V429.52C133.033 419.404 141.268 411.266 151.532 411.266H205.839C216.108 411.266 224.463 419.408 224.463 429.52V501.5H205.305V472.603V472.103H204.805H152.422H151.922V472.603ZM204.805 453.329H205.305V452.829V430.521V430.021H204.805H152.422H151.922V430.521V452.829V453.329H152.422H204.805ZM321.069 456.303C314.977 463.521 308.863 470.763 303.031 477.535L271.434 440.594L270.554 439.565V440.919V501.5H251.665V411.266H271.485L302.669 447.963L303.051 448.413L303.432 447.963L334.472 411.266H354.395V501.5H335.361V440.796V439.44L334.48 440.472C330.105 445.6 325.593 450.945 321.069 456.303ZM382.466 411.266H401.5V501.5H382.466V411.266Z" stroke="white"/>
</g>
<defs>
<filter id="filter0_f_1_1372" x="0" y="0" width="407.83" height="507.854" filterUnits="userSpaceOnUse" color-interpolation-filters="sRGB">
<feFlood flood-opacity="0" result="BackgroundImageFix"/>
<feBlend mode="normal" in="SourceGraphic" in2="BackgroundImageFix" result="shape"/>
<feGaussianBlur stdDeviation="5" result="effect1_foregroundBlur_1_1372"/>
</filter>
<filter id="filter1_dd_1_1372" x="2.16998" y="12.1461" width="411.83" height="511.854" filterUnits="userSpaceOnUse" color-interpolation-filters="sRGB">
<feFlood flood-opacity="0" result="BackgroundImageFix"/>
<feColorMatrix in="SourceAlpha" type="matrix" values="0 0 0 0 0 0 0 0 0 0 0 0 0 0 0 0 0 0 127 0" result="hardAlpha"/>
<feMorphology radius="2" operator="erode" in="SourceAlpha" result="effect1_dropShadow_1_1372"/>
<feOffset dy="4"/>
<feGaussianBlur stdDeviation="3"/>
<feColorMatrix type="matrix" values="0 0 0 0 0 0 0 0 0 0 0 0 0 0 0 0 0 0 0.05 0"/>
<feBlend mode="normal" in2="BackgroundImageFix" result="effect1_dropShadow_1_1372"/>
<feColorMatrix in="SourceAlpha" type="matrix" values="0 0 0 0 0 0 0 0 0 0 0 0 0 0 0 0 0 0 127 0" result="hardAlpha"/>
<feMorphology radius="3" operator="erode" in="SourceAlpha" result="effect2_dropShadow_1_1372"/>
<feOffset dy="10"/>
<feGaussianBlur stdDeviation="7.5"/>
<feColorMatrix type="matrix" values="0 0 0 0 0 0 0 0 0 0 0 0 0 0 0 0 0 0 0.1 0"/>
<feBlend mode="normal" in2="effect1_dropShadow_1_1372" result="effect2_dropShadow_1_1372"/>
<feBlend mode="normal" in="SourceGraphic" in2="effect2_dropShadow_1_1372" result="shape"/>
</filter>
</defs>
</svg>
